<?xml version="1.0" standalone="no"?>
<!DOCTYPE svg PUBLIC "-//W3C//DTD SVG 20010904//EN"
 "http://www.w3.org/TR/2001/REC-SVG-20010904/DTD/svg10.dtd">
<svg version="1.0" xmlns="http://www.w3.org/2000/svg"
 width="733.000000pt" height="733.000000pt" viewBox="0 0 733.000000 733.000000"
 preserveAspectRatio="xMidYMid meet">
<metadata>
Created by potrace 1.11, written by Peter Selinger 2001-2013
</metadata>
<g transform="translate(0.000000,733.000000) scale(0.100000,-0.100000)"
fill="#000000" stroke="none">
<path d="M739 4826 c-2 -2 -40 -6 -84 -9 -264 -17 -474 -155 -560 -367 -29
-74 -43 -169 -40 -275 4 -140 38 -239 113 -330 69 -85 214 -172 334 -202 26
-6 322 -58 383 -66 136 -20 184 -32 259 -67 70 -34 146 -115 174 -186 29 -76
32 -93 33 -189 1 -289 -220 -468 -576 -466 -261 2 -402 52 -582 208 -33 29
-64 53 -68 53 -17 0 -117 -110 -112 -123 12 -32 176 -150 272 -197 87 -42 129
-56 220 -76 98 -22 374 -24 470 -5 133 27 235 69 320 131 151 111 227 264 229
460 1 128 -5 170 -40 252 -83 198 -256 322 -494 353 -8 1 -34 5 -57 9 -23 4
-55 9 -70 11 -246 37 -301 50 -398 95 -160 73 -232 176 -239 343 -6 146 38
271 126 356 102 99 233 141 428 136 187 -5 314 -48 455 -155 l68 -51 53 52
c30 30 54 56 54 59 0 10 -132 106 -191 139 -99 55 -246 96 -357 100 -29 1 -68
4 -86 6 -18 3 -35 3 -37 1z"/>
<path d="M6528 4825 c-2 -1 -37 -5 -78 -8 -81 -6 -95 -8 -178 -33 -159 -46
-303 -166 -367 -306 -52 -114 -69 -296 -39 -423 55 -237 254 -392 567 -439 20
-3 54 -8 75 -12 160 -23 339 -57 379 -70 68 -23 158 -89 193 -141 51 -78 65
-135 64 -263 0 -100 -3 -122 -26 -174 -35 -81 -82 -137 -153 -183 -72 -47 -96
-58 -172 -77 -106 -27 -209 -33 -361 -20 -151 12 -316 87 -439 198 -33 31 -65
56 -70 56 -5 0 -35 -26 -67 -59 l-57 -58 58 -52 c197 -177 390 -244 698 -245
148 -1 231 10 334 44 234 76 393 245 426 452 49 312 -92 574 -361 671 -60 22
-208 51 -359 72 -345 48 -520 153 -560 335 -14 64 -13 179 1 240 53 228 238
349 524 345 132 -2 171 -8 255 -37 98 -34 195 -91 263 -155 7 -7 16 -13 18
-13 3 0 31 25 62 56 l57 55 -25 20 c-159 127 -329 202 -484 214 -131 11 -174
13 -178 10z"/>
<path d="M1968 4775 c-2 -16 -1 -51 0 -77 l4 -48 336 -2 337 -3 0 -1055 0
-1055 88 -1 87 -1 0 1058 0 1059 340 0 340 0 0 78 0 77 -765 0 -764 0 -3 -30z"/>
<path d="M4440 4790 c-7 -13 -191 -508 -246 -662 -14 -39 -401 -1092 -515
-1400 -38 -104 -69 -190 -69 -192 0 -2 41 -4 90 -4 73 1 93 4 100 17 8 15 190
522 315 876 227 644 398 1121 404 1127 4 4 22 -38 41 -95 19 -56 38 -109 42
-117 4 -8 58 -157 119 -330 124 -353 501 -1411 517 -1451 10 -25 13 -26 101
-27 51 0 91 4 91 9 0 9 -15 50 -80 224 -22 56 -284 769 -337 915 -19 52 -52
142 -73 200 -21 58 -106 289 -189 514 -83 225 -151 410 -151 410 0 1 -34 1
-76 1 -60 1 -77 -2 -84 -15z"/>
</g>
</svg>
